<svg xmlns="http://www.w3.org/2000/svg" version="1.1" xmlns:xlink="http://www.w3.org/1999/xlink" xmlns:svgjs="http://svgjs.dev/svgjs" viewBox="0 0 2400 800" opacity="0.95"><defs><linearGradient x1="50%" y1="0%" x2="50%" y2="100%" id="sssurf-grad"><stop stop-color="hsla(163, 37%, 59%, 1.00)" stop-opacity="1" offset="0%"></stop><stop stop-color="hsla(163, 42%, 35%, 1.00)" stop-opacity="1" offset="100%"></stop></linearGradient></defs><g fill="url(#sssurf-grad)" transform="matrix(1,0,0,1,0,-80.59603881835938)"><path d="M 0 341.4800524662257 Q 450 638.9028389334464 600 325.6833564668228 Q 1050 491.13369131149074 1200 315.1920907075535 Q 1650 563.5022855758215 1800 334.0341074601781 Q 2250 574.8913526566216 2400 338.6246459811852 L 2400 800 L 0 800 L 0 317.96183723381125 Z" transform="matrix(1,0,0,1,0,41)" opacity="0.05"></path><path d="M 0 341.4800524662257 Q 450 638.9028389334464 600 325.6833564668228 Q 1050 491.13369131149074 1200 315.1920907075535 Q 1650 563.5022855758215 1800 334.0341074601781 Q 2250 574.8913526566216 2400 338.6246459811852 L 2400 800 L 0 800 L 0 317.96183723381125 Z" transform="matrix(1,0,0,1,0,82)" opacity="0.29"></path><path d="M 0 341.4800524662257 Q 450 638.9028389334464 600 325.6833564668228 Q 1050 491.13369131149074 1200 315.1920907075535 Q 1650 563.5022855758215 1800 334.0341074601781 Q 2250 574.8913526566216 2400 338.6246459811852 L 2400 800 L 0 800 L 0 317.96183723381125 Z" transform="matrix(1,0,0,1,0,123)" opacity="0.53"></path><path d="M 0 341.4800524662257 Q 450 638.9028389334464 600 325.6833564668228 Q 1050 491.13369131149074 1200 315.1920907075535 Q 1650 563.5022855758215 1800 334.0341074601781 Q 2250 574.8913526566216 2400 338.6246459811852 L 2400 800 L 0 800 L 0 317.96183723381125 Z" transform="matrix(1,0,0,1,0,164)" opacity="0.76"></path><path d="M 0 341.4800524662257 Q 450 638.9028389334464 600 325.6833564668228 Q 1050 491.13369131149074 1200 315.1920907075535 Q 1650 563.5022855758215 1800 334.0341074601781 Q 2250 574.8913526566216 2400 338.6246459811852 L 2400 800 L 0 800 L 0 317.96183723381125 Z" transform="matrix(1,0,0,1,0,205)" opacity="1.00"></path></g></svg>